<?xml version="1.0" encoding="utf-8"?>
<!-- Generator: Adobe Illustrator 27.5.0, SVG Export Plug-In . SVG Version: 6.00 Build 0)  -->
<svg version="1.1" xmlns="http://www.w3.org/2000/svg" xmlns:xlink="http://www.w3.org/1999/xlink" x="0px" y="0px"
	 viewBox="0 0 1000 1000" style="enable-background:new 0 0 1000 1000;" xml:space="preserve">
<g id="object">
	<g>
		<g>
			<g>
				<path style="fill:#B51019;" d="M335.603,721.79c-15.109,0-27.127-4.221-35.428-12.696
					c-20.386-20.811-15.989-65.693,12.064-123.137c54.753-112.113,183.227-242.191,286.392-289.964
					c47.103-21.814,83.041-23.619,101.195-5.087c20.386,20.811,15.989,65.693-12.064,123.137
					c-54.755,112.115-183.229,242.192-286.392,289.964C375.809,715.844,353.531,721.79,335.603,721.79z M599.117,297.045
					l0.487,1.051c-102.752,47.583-230.729,177.173-285.281,288.878c-27.598,56.51-32.152,100.43-12.493,120.499
					c17.417,17.777,52.421,15.8,98.567-5.569c102.75-47.581,230.727-177.172,285.281-288.878
					c27.598-56.51,32.151-100.43,12.492-120.498c-17.413-17.776-52.417-15.802-98.566,5.569L599.117,297.045z"/>
			</g>
		</g>
		<g>
			<g>
				<path style="fill:#B51019;" d="M324.754,724.813c-17.662,0-31.38-5.075-40.26-15.208
					c-20.777-23.708-13.142-72.632,20.948-134.228c64.311-116.203,203.63-244.874,310.564-286.83
					c46.969-18.429,82.308-17.772,99.501,1.848c20.776,23.708,13.141,72.632-20.949,134.228
					c-64.31,116.202-203.628,244.874-310.563,286.83C361.284,720.364,341.289,724.813,324.754,724.813z M675.258,277.478
					c-16.21,0-35.923,4.405-58.406,13.226c-106.506,41.788-245.295,169.995-309.383,285.795
					c-33.588,60.691-41.328,108.649-21.233,131.578c16.501,18.83,50.918,19.262,96.912,1.218
					C489.654,667.507,628.443,539.3,692.53,423.501c33.589-60.69,41.328-108.649,21.234-131.578
					C705.329,282.297,692.21,277.478,675.258,277.478z"/>
			</g>
		</g>
		<g>
			<g>
				<path style="fill:#B51019;" d="M314.818,727.116c-20.801,0-36.58-6.131-46.066-18.276
					c-21.035-26.932-9.794-79.987,30.837-145.558c74.189-119.727,224.192-245.851,334.379-281.153
					c46.539-14.91,81.087-11.703,97.28,9.031c21.035,26.933,9.796,79.986-30.836,145.558
					c-74.189,119.727-224.191,245.851-334.379,281.153C346.754,724.047,329.529,727.116,314.818,727.116z M685.213,275.182
					c-14.453,0-31.449,3.037-50.538,9.153C524.935,319.494,375.5,445.176,301.558,564.503
					c-40.09,64.698-51.382,116.787-30.98,142.911c15.553,19.913,49.202,22.843,94.747,8.251
					c109.74-35.159,259.175-160.841,333.117-280.167c40.09-64.699,51.382-116.787,30.979-142.911
					C720.388,281.02,705.244,275.182,685.213,275.182z"/>
			</g>
		</g>
		<g>
			<g>
				<path style="fill:#B51019;" d="M305.511,728.88c-24.445,0-42.28-7.462-52.474-22.208
					c-21.102-30.528-5.877-87.765,41.772-157.038c84.339-122.609,244.764-244.966,357.616-272.755
					c46.494-11.448,79.184-5.76,94.537,16.449c21.103,30.527,5.877,87.765-41.772,157.038
					c-84.339,122.609-244.765,244.966-357.615,272.755C331.95,726.968,317.883,728.88,305.511,728.88z M694.508,273.429
					c-12.176,0-26.062,1.893-41.528,5.701c-112.381,27.672-272.2,149.609-356.262,271.818
					c-47.075,68.435-62.301,124.714-41.775,154.406c14.76,21.35,46.6,26.716,92.076,15.516
					c112.38-27.672,272.198-149.609,356.261-271.818c47.075-68.435,62.301-124.714,41.775-154.406
					C735.316,280.557,718.136,273.429,694.508,273.429z"/>
			</g>
		</g>
		<g>
			<g>
				<path style="fill:#B51019;" d="M298.225,729.838c-29.257,0-50.013-9.09-60.784-26.877c-20.907-34.529-1.3-95.965,53.794-168.553
					c94.702-124.772,265.187-242.065,380.041-261.465l0.193,1.142l-0.193-1.142c45.514-7.687,77.082,0.644,91.282,24.097
					c20.907,34.53,1.3,95.965-53.794,168.553c-94.701,124.772-265.187,242.065-380.041,261.466
					C317.727,728.915,307.545,729.838,298.225,729.838z M701.794,272.476c-9.19,0-19.248,0.913-30.132,2.751
					C557.308,294.544,387.477,411.44,293.081,535.809c-53.687,70.735-73.747,132.773-53.657,165.952
					c13.668,22.572,44.411,30.528,88.914,23.013c114.356-19.317,284.186-136.213,378.582-260.582
					c53.687-70.735,73.747-132.773,53.657-165.951C750.252,281.189,730.178,272.476,701.794,272.476z"/>
			</g>
		</g>
		<g>
			<g>
				<path style="fill:#B51019;" d="M293.011,730.289c-35.32,0-59.686-11.176-70.948-32.743
					c-20.054-38.4,4.969-105.676,66.937-179.963c105.215-126.134,285.285-236.991,401.406-247.12
					c44.316-3.868,74.583,7.197,87.531,31.99c20.054,38.4-4.97,105.675-66.937,179.962
					C605.784,608.55,425.714,719.408,309.593,729.536C303.826,730.039,298.295,730.289,293.011,730.289z M690.507,271.618
					l0.101,1.154c-115.591,10.082-294.954,120.57-399.829,246.295c-61.347,73.544-86.268,139.863-66.662,177.405
					c12.48,23.896,41.969,34.535,85.274,30.754c115.591-10.082,294.954-120.569,399.83-246.295
					c61.347-73.544,86.268-139.863,66.661-177.405c-12.479-23.897-41.971-34.531-85.275-30.754L690.507,271.618z"/>
			</g>
		</g>
		<g>
			<g>
				<path style="fill:#B51019;" d="M290.369,730.408c-0.021,0-0.035,0-0.057,0c-42.928-0.013-71.732-13.902-83.299-40.167
					c-19.038-43.233,11.325-114.666,81.222-191.084C404.026,372.564,593.047,269.592,709.63,269.592c0.021,0,0.035,0,0.057,0
					c42.928,0.013,71.733,13.902,83.299,40.167c19.038,43.233-11.325,114.666-81.222,191.084
					C595.973,627.436,406.952,730.403,290.369,730.408z M709.628,271.91c-116.017,0-304.265,102.626-419.682,228.81
					c-69.258,75.72-99.468,146.219-80.81,188.586c11.167,25.36,39.238,38.771,81.177,38.783c0.015,0,0.043,0,0.058,0
					c116.017,0.009,304.266-102.625,419.682-228.81c69.259-75.719,99.468-146.219,80.812-188.586
					c-11.168-25.36-39.239-38.771-81.178-38.783C709.671,271.91,709.643,271.91,709.628,271.91z"/>
			</g>
		</g>
		<g>
			<g>
				<path style="fill:#B51019;" d="M290.498,730.415c-6.716,0-13.21-0.293-19.477-0.891c-41.399-3.95-68.577-20.792-78.595-48.705
					c-17.416-48.521,18.718-123.918,96.655-201.686C415.492,352.997,612.83,259.408,728.98,270.476
					c41.399,3.95,68.577,20.792,78.595,48.705c17.414,48.521-18.718,123.918-96.655,201.686
					C591.328,640.197,408.249,730.411,290.498,730.415z M709.415,271.899c-117.161,0-299.495,89.931-418.697,208.875
					c-77.286,77.117-113.215,151.608-96.112,199.262c9.694,27.008,36.193,43.322,76.635,47.181
					c115.53,11.023,312.054-82.279,438.041-207.991c77.286-77.117,113.215-151.608,96.112-199.262
					c-9.694-27.008-36.193-43.322-76.635-47.181C722.539,272.19,716.081,271.899,709.415,271.899z"/>
			</g>
		</g>
		<g>
			<g>
				<path style="fill:#B51019;" d="M293.872,730.582c-14.999,0.001-29.064-1.25-42.002-3.844
					c-39.776-7.974-65.164-27.937-73.417-57.731c-15.025-54.234,27.298-133.29,113.212-211.475
					c136.934-124.615,341.712-207.28,456.464-184.271c39.777,7.974,65.164,27.937,73.418,57.73
					c15.023,54.234-27.299,133.29-113.213,211.475C586.838,653.034,411.923,730.575,293.872,730.582z M705.985,271.719
					c-117.443,0-291.645,77.309-412.759,187.527c-85.254,77.585-127.324,155.769-112.539,209.143
					c8.004,28.894,32.777,48.286,71.64,56.077c12.831,2.572,26.811,3.814,41.688,3.814
					c117.444,0.007,291.646-77.309,412.759-187.527c85.255-77.585,127.326-155.769,112.54-209.142
					c-8.005-28.895-32.777-48.286-71.64-56.077C734.843,272.962,720.861,271.719,705.985,271.719z"/>
			</g>
		</g>
		<g>
			<g>
				<path style="fill:#B51019;" d="M301.06,731.258c-25.178,0.001-48.148-3.016-68.033-9.351
					c-38.103-12.14-61.522-35.458-67.726-67.432c-11.696-60.287,37.21-142.562,130.822-220.086
					c147.285-121.974,358.512-192.088,470.85-156.294c38.103,12.139,61.523,35.457,67.726,67.431
					c11.696,60.286-37.209,142.562-130.82,220.087C582.662,665.996,418.128,731.253,301.06,731.258z M698.778,271.026
					c-116.459,0-280.342,65.078-401.177,165.147c-92.949,76.976-141.557,158.419-130.025,217.86
					c6.032,31.092,28.908,53.798,66.154,65.665c111.682,35.579,321.923-34.344,468.669-155.872
					c92.949-76.976,141.556-158.419,130.024-217.86c-6.032-31.091-28.907-53.798-66.154-65.665
					C746.549,274.02,723.752,271.026,698.778,271.026z"/>
			</g>
		</g>
		<g>
			<g>
				<path style="fill:#B51019;" d="M312.534,732.872c-37.521,0-70.979-5.778-97.864-17.986
					c-36.412-16.533-57.653-43.527-61.427-78.063c-7.271-66.531,48.556-151.419,149.338-227.072
					c157.37-118.134,373.93-174.045,482.749-124.636c36.412,16.533,57.653,43.527,61.427,78.063
					c7.271,66.532-48.556,151.419-149.338,227.073C578.93,679.197,426.88,732.872,312.534,732.872z M687.33,269.394
					c-113.76,0-265.23,53.533-383.358,142.209c-100.12,75.158-155.606,159.258-148.425,224.967
					c3.68,33.677,24.456,60.029,60.081,76.205c108.128,49.097,323.636-6.7,480.4-124.378
					c100.12-75.158,155.606-159.258,148.425-224.968c-3.68-33.677-24.456-60.029-60.081-76.205
					C757.722,275.124,724.537,269.394,687.33,269.394z"/>
			</g>
		</g>
		<g>
			<g>
				<path style="fill:#B51019;" d="M328.507,735.924c-52.176,0-97.904-9.778-131.516-30.381
					c-34.712-21.279-53.506-52.38-54.347-89.942c-1.63-72.74,61.366-159.439,168.516-231.918
					c167.086-113.023,387.73-153.049,491.849-89.226c34.712,21.279,53.505,52.38,54.347,89.943
					c1.63,72.74-61.367,159.439-168.516,231.918C575.69,692.855,437.957,735.924,328.507,735.924z M671.421,266.327
					c-108.912,0-246.144,42.961-358.963,119.275C205.963,457.638,143.348,543.6,144.961,615.549
					c0.823,36.736,19.234,67.172,53.241,88.018c103.416,63.394,322.933,23.392,489.339-89.168
					c106.494-72.036,169.11-157.997,167.498-229.947c-0.823-36.736-19.234-67.172-53.241-88.018
					C768.495,276.019,723.153,266.327,671.421,266.327z"/>
			</g>
		</g>
		<g>
			<g>
				<path style="fill:#B51019;" d="M348.725,740.961c-69.004,0-128.941-15.358-168.532-47.21
					c-32.981-26.535-48.958-62.299-46.201-103.426c5.269-78.599,75.544-166.098,187.989-234.057
					c176.324-106.568,399.646-129.007,497.827-50.019c32.981,26.535,48.958,62.299,46.2,103.426
					c-5.268,78.599-75.544,166.098-187.989,234.057C572.799,707.325,450.837,740.961,348.725,740.961z M651.287,261.284
					c-101.644,0-223.184,33.554-328.108,96.968C211.381,425.82,141.521,512.635,136.304,590.48
					c-2.704,40.339,12.974,75.425,45.342,101.465c97.481,78.426,319.615,55.909,495.175-50.197
					C788.618,574.18,858.477,487.366,863.696,409.52c2.704-40.339-12.975-75.426-45.342-101.465
					C779.133,276.5,719.713,261.284,651.287,261.284z"/>
			</g>
		</g>
		<g>
			<g>
				<path style="fill:#B51019;" d="M372.311,748.523c-87.624,0-163.544-22.947-207.821-69.13
					c-31.151-32.489-43.8-73.592-36.581-118.865c13.351-83.723,90.824-170.796,207.241-232.92
					c184.966-98.704,409.429-101.844,500.361-7.002c31.151,32.49,43.801,73.593,36.581,118.865
					c-13.35,83.723-90.824,170.796-207.242,232.921C569.95,723.033,464.635,748.523,372.311,748.523z M627.777,253.728
					c-91.937,0-196.896,25.422-291.537,75.926c-115.781,61.784-192.807,148.228-206.044,231.24
					c-7.1,44.529,5.336,84.951,35.965,116.897c90.264,94.144,313.484,90.806,497.597-7.442
					c115.782-61.785,192.808-148.23,206.044-231.241c7.101-44.528-5.336-84.951-35.964-116.896
					C789.974,276.46,714.693,253.728,627.777,253.728z"/>
			</g>
		</g>
		<g>
			<g>
				<path style="fill:#B51019;" d="M397.758,759.08c-107.326,0.005-200.604-33.09-247.656-96.713
					c-29.097-39.345-37.729-86.56-24.962-136.542c22.398-87.689,106.745-172.924,225.63-228.004
					c192.894-89.369,416.802-71.509,499.127,39.812l0,0c29.097,39.345,37.729,86.56,24.963,136.542
					c-22.398,87.69-106.745,172.925-225.629,228.004C566.583,740.471,478.217,759.077,397.758,759.08z M602.372,243.185
					c-80.148,0-168.209,18.554-250.628,56.739c-118.259,54.789-202.131,139.453-224.359,226.474
					c-12.589,49.284-4.09,95.825,24.579,134.59c81.71,110.484,304.343,128.018,496.293,39.088
					c118.258-54.789,202.13-139.453,224.358-226.475c12.589-49.285,4.089-95.825-24.58-134.59
					C801.411,275.967,708.885,243.185,602.372,243.185z"/>
			</g>
		</g>
		<g>
			<g>
				<path style="fill:#B51019;" d="M423.193,772.983c-127.328,0.006-238.592-46.385-285.933-130.406
					c-26.646-47.293-30.361-101.439-10.743-156.584c32.051-90.091,122.672-171.941,242.411-218.949
					c199.979-78.508,421.502-37.963,493.811,90.378c26.646,47.293,30.362,101.439,10.743,156.583
					c-32.05,90.092-122.671,171.942-242.411,218.949C562.012,760.067,490.358,772.98,423.193,772.983z M576.932,229.3
					c-66.912,0-138.31,12.874-207.157,39.902c-119.124,46.766-209.244,128.1-241.074,217.568
					c-19.388,54.494-15.73,107.978,10.578,154.67c71.768,127.373,292.003,167.459,490.945,89.358
					c119.124-46.766,209.245-128.1,241.074-217.568c19.387-54.494,15.729-107.978-10.579-154.669l0,0
					C813.79,275.267,703.37,229.3,576.932,229.3z"/>
			</g>
		</g>
		<g>
			<g>
				<path style="fill:#B51019;" d="M446.773,790.432c-146.962,0.005-275.895-63.422-320.573-170.485
					c-23.579-56.504-21.266-118.367,6.688-178.902c41.836-90.6,137.844-167.462,256.817-205.606
					c206.076-66.073,423.245-1.2,484.094,144.613c23.579,56.503,21.267,118.366-6.687,178.901
					c-41.836,90.6-137.842,167.463-256.817,205.608C555.529,782.12,499.963,790.431,446.773,790.432z M553.318,211.868
					c-52.987,0-108.324,8.279-162.906,25.778c-118.367,37.95-213.852,114.35-255.421,204.371
					c-27.674,59.931-29.975,121.149-6.652,177.038c44.313,106.189,172.349,169.072,318.343,169.078
					c52.988,0.002,108.324-8.279,162.906-25.778c118.367-37.95,213.852-114.351,255.421-204.373
					c27.674-59.93,29.974-121.149,6.651-177.037C827.347,274.757,699.311,211.868,553.318,211.868z"/>
			</g>
		</g>
		<g>
			<g>
				<path style="fill:#B51019;" d="M467.013,811.485c-165.841,0-311.101-84.699-349.853-217.072
					c-19.641-67.092-10.008-137.335,27.856-203.133c51.994-90.352,149.729-158.911,268.144-188.098
					c211.084-52.026,421.776,38.771,469.678,202.403c19.641,67.092,10.008,137.334-27.855,203.132
					c-51.993,90.352-149.728,158.912-268.145,188.1C546.513,806.757,506.178,811.485,467.013,811.485z M533.033,190.826
					c-39.01,0-79.144,4.705-119.318,14.607C295.91,234.47,198.704,302.63,147.025,392.436
					c-37.541,65.238-47.099,134.855-27.64,201.326c38.455,131.362,182.784,215.403,347.581,215.411
					c39.01,0.002,79.144-4.705,119.318-14.607c117.807-29.037,215.012-97.198,266.692-187.005
					c37.541-65.237,47.098-134.854,27.639-201.325C842.159,274.875,697.831,190.826,533.033,190.826z"/>
			</g>
		</g>
		<g>
			<g>
				<path style="fill:#B51019;" d="M482.929,836.089c-183.862,0.01-343.168-110.616-372.543-270.16
					c-14.357-77.977,4.503-159.171,53.105-228.625c60.611-86.618,161.157-147.424,275.855-166.827
					c214.828-36.347,416.816,81.907,450.267,263.596c14.357,77.976-4.502,159.17-53.103,228.624
					c-60.613,86.618-161.159,147.424-275.857,166.828C534.468,833.954,508.451,836.087,482.929,836.089z M517.084,166.228
					c-25.41,0-51.279,2.122-77.352,6.533c-114.09,19.301-214.084,79.759-274.342,165.871
					c-48.244,68.942-66.969,149.515-52.726,226.877c29.169,158.423,187.506,268.258,370.251,268.264
					c25.41,0.001,51.279-2.122,77.352-6.533c114.091-19.301,214.085-79.759,274.344-165.872
					c48.243-68.942,66.967-149.514,52.724-226.875l0,0C858.167,276.068,699.83,166.228,517.084,166.228z"/>
			</g>
		</g>
		<g>
			<g>
				<path style="fill:#B51019;" d="M493.992,864.113C292.822,864.13,122.588,722.672,106.121,534.46
					C88.636,334.598,251.104,156.541,468.289,137.54c105.192-9.202,207.388,19.835,287.764,81.765
					c80.405,61.952,129.352,149.4,137.824,246.236c8.472,96.834-24.546,191.453-92.972,266.427
					c-68.402,74.946-164.003,121.29-269.195,130.493C519.052,863.568,506.445,864.112,493.992,864.113z M506.419,138.187
					c-12.578,0-25.228,0.551-37.928,1.662C252.579,158.738,91.056,335.669,108.43,534.258
					c16.36,186.989,185.606,327.526,385.564,327.537c12.404,0.001,24.904-0.54,37.516-1.643
					C636.119,851,731.184,804.922,799.194,730.406c67.984-74.489,100.791-168.482,92.375-264.663
					c-8.415-96.182-57.044-183.05-136.93-244.602C684.425,167.041,597.451,138.187,506.419,138.187z"/>
			</g>
		</g>
		<g>
			<g>
				<path style="fill:#B51019;" d="M500,895.383c-218.014,0-395.382-177.368-395.382-395.383
					c0-218.015,177.368-395.383,395.382-395.383c218.015,0,395.383,177.368,395.383,395.383
					C895.383,718.015,718.015,895.383,500,895.383z M500,106.935c-216.737,0-393.065,176.329-393.065,393.065
					c0,216.737,176.328,393.065,393.065,393.065S893.065,716.737,893.065,500C893.065,283.263,716.736,106.935,500,106.935z"/>
			</g>
		</g>
	</g>
</g>
</svg>
